# xmcd
#
# Track frame offsets:
# 150
# 12768
# 27696
# 44986
# 53930
# 68511
# 82230
# 93870
# 106754
# 125578
# 140829
# 158041
# 175179
# 193831
# 209333
#
# Disc length: 2898 seconds
#
#
# Revision: 0
# Processed by: cddbd v1.5.2PL0 Copyright (c) Steve Scherf et al.
# Submitted via: FreeRIP 2.96 
#
DISCID=da0b500f
DTITLE=Hayseed Dixie - Weapons Of mass Destruction
DYEAR=1900
DGENRE=Bluegrass
TTITLE0=Holidays In The Sun
TTITLE1=Devil Woman
TTITLE2=I Don't Feel Like Dancin'
TTITLE3=She Was Skinny When I Met Her
TTITLE4=Strawberry Fields Forever
TTITLE5=Before Your Old Man Gets Home
TTITLE6=Breaking The Law
TTITLE7=More Pretty Girls Than One
TTITLE8=Down Down
TTITLE9=Walking Cane
TTITLE10=Paint It Black
TTITLE11=Hungover Brokedown
TTITLE12=Poisen
TTITLE13=The Rider Song
TTITLE14=Bar - B - Q
EXTD=
EXTT0=
EXTT1=
EXTT2=
EXTT3=
EXTT4=
EXTT5=
EXTT6=
EXTT7=
EXTT8=
EXTT9=
EXTT10=
EXTT11=
EXTT12=
EXTT13=
EXTT14=
PLAYORDER=
